<svg xmlns="http://www.w3.org/2000/svg" viewBox="0 0 843.48 154.86"><title>Asset 9</title><g id="Layer_2" data-name="Layer 2"><g id="Layer_1-2" data-name="Layer 1"><path d="M151.14,65.27a57.8,57.8,0,0,1-2.32,17.08,48.66,48.66,0,0,1-6.27,13.26,44.5,44.5,0,0,1-9.13,9.83,53,53,0,0,1-22.2,10.42A53.58,53.58,0,0,1,100.41,117h-62V89.11h62a31.32,31.32,0,0,0,9.55-2.2,22.75,22.75,0,0,0,7.33-4.78A20.79,20.79,0,0,0,122,74.88a25.72,25.72,0,0,0,1.69-9.61V52.59a37.1,37.1,0,0,0-2.22-9.67,23,23,0,0,0-4.58-7.52,20.74,20.74,0,0,0-7-4.88,23.63,23.63,0,0,0-9.49-1.78H38.6q-5.48,0-8.33,2.9T27.42,40V154.86H0V40Q0,29.28,3.85,21.76a36.9,36.9,0,0,1,9.6-12.14A37.67,37.67,0,0,1,26,2.91,42.14,42.14,0,0,1,38.39.81h62a53.42,53.42,0,0,1,16.66,2.42,47.62,47.62,0,0,1,13,6.45A43.51,43.51,0,0,1,139.7,19a57.45,57.45,0,0,1,6.54,11A53.66,53.66,0,0,1,150,41.58a56.3,56.3,0,0,1,1.16,11Z" style="fill:#fff"/><path d="M322.7,154.86H186.59a16.2,16.2,0,0,1-6-1.08,14.5,14.5,0,0,1-4.76-2.95,13.61,13.61,0,0,1-4.31-10.05V.81h29.84V121.93a5.19,5.19,0,0,0,5.34,5h116Z" style="fill:#fff"/><path d="M497.69,91.82a65,65,0,0,1-4.84,25.32,59.78,59.78,0,0,1-13.43,20,60.73,60.73,0,0,1-20.35,13.08,68.67,68.67,0,0,1-25.62,4.68H395.63A69.12,69.12,0,0,1,370,150.18a59.8,59.8,0,0,1-33.89-33,64.29,64.29,0,0,1-4.89-25.32V63a64.43,64.43,0,0,1,4.89-25.27,59.89,59.89,0,0,1,13.48-20A61.85,61.85,0,0,1,370,4.73,68.54,68.54,0,0,1,395.63,0h37.82a68.09,68.09,0,0,1,25.62,4.73,62,62,0,0,1,20.35,13.08,59.18,59.18,0,0,1,13.43,20A65.13,65.13,0,0,1,497.69,63ZM469.76,63a39,39,0,0,0-2.64-14.66,32.22,32.22,0,0,0-7.41-11.24,33.29,33.29,0,0,0-11.49-7.25,40.87,40.87,0,0,0-14.77-2.57H395.63a41.11,41.11,0,0,0-14.87,2.57,33.74,33.74,0,0,0-11.55,7.25,32.08,32.08,0,0,0-7.47,11.24A39.17,39.17,0,0,0,359.11,63V91.82a39.17,39.17,0,0,0,2.63,14.66,32.08,32.08,0,0,0,7.47,11.24A33.74,33.74,0,0,0,380.76,125a41.11,41.11,0,0,0,14.87,2.57h37.6A41.21,41.21,0,0,0,448.11,125a33.84,33.84,0,0,0,11.55-7.25,31.92,31.92,0,0,0,7.46-11.24,39,39,0,0,0,2.64-14.66Z" style="fill:#fff"/><path d="M662.36,28.74H605.81a5,5,0,0,0-5,5V154.86H572.88V33.74a5,5,0,0,0-5-5H511.22V.81H662.36Z" style="fill:#fff"/><path d="M703.48,124l58.06-40.7a19.45,19.45,0,0,1,5.7-2.62,25.62,25.62,0,0,1,7-1,25.27,25.27,0,0,1,7.23,1,18.33,18.33,0,0,1,5.76,2.74l56.22,40.19v31.06l-69.21-49.49-70.79,49.49Z" style="fill:#17d0bc"/><path d="M703.48.67l70.79,49.5L843.48.67V31.82L787.26,71.93c-3.26,2.49-7.6,3.74-13,3.74a25.24,25.24,0,0,1-7-1,19.44,19.44,0,0,1-5.7-2.61L703.48,31.49Z" style="fill:#ff6262"/></g></g></svg>