<svg width="17" height="19" viewBox="0 0 17 19" fill="none" xmlns="http://www.w3.org/2000/svg">
<g opacity="0.6">
<path fill-rule="evenodd" clip-rule="evenodd" d="M6.03811 2.72905L2.05023 13.5155C2.00235 13.645 2.06852 13.7888 2.19802 13.8366L3.21329 14.212C3.81939 12.7862 5.44539 12.074 6.91407 12.6169C8.38276 13.1599 9.15437 14.7586 8.68721 16.2358L9.77231 16.637C9.90181 16.6848 10.0456 16.6187 10.0935 16.4892L14.0814 5.70274C14.1292 5.57324 14.0631 5.42944 13.9336 5.38156L12.8134 4.96741C12.1163 6.18145 10.6251 6.75124 9.26817 6.24958C7.91126 5.74791 7.14936 4.34512 7.40966 2.96959L6.35929 2.58125C6.22978 2.53337 6.08598 2.59954 6.03811 2.72905ZM0.643304 12.9953L4.63118 2.20889C4.96634 1.30236 5.97292 0.839173 6.87944 1.17433L8.38762 1.73192C8.89066 1.9179 9.14769 2.47646 8.96171 2.9795L8.94802 3.01653C8.6758 3.75285 9.05201 4.57043 9.78833 4.84265C10.5246 5.11488 11.3422 4.73866 11.6145 4.00234L11.6281 3.96531C11.8141 3.46228 12.3727 3.20525 12.8757 3.39123L14.4537 3.97464C15.3603 4.30979 15.8234 5.31637 15.4883 6.2229L11.5004 17.0093C11.1653 17.9158 10.1587 18.379 9.25215 18.0439L7.70377 17.4714C7.18437 17.2794 6.91898 16.7027 7.11101 16.1833L7.23422 15.85C7.50645 15.1137 7.13023 14.2961 6.39392 14.0239C5.6576 13.7516 4.84002 14.1279 4.56779 14.8642L4.44458 15.1975C4.25255 15.7169 3.67582 15.9822 3.15642 15.7902L1.67787 15.2436C0.77134 14.9084 0.30815 13.9018 0.643304 12.9953Z" fill="white"/>
<path fill-rule="evenodd" clip-rule="evenodd" d="M3.84926 10.1184L2.66798 9.68164L3.18814 8.27472L4.36942 8.71145C4.75793 8.85509 4.95644 9.28648 4.8128 9.67499C4.66916 10.0635 4.23777 10.262 3.84926 10.1184ZM5.76842 10.0283C5.91206 9.63978 6.34345 9.44127 6.73196 9.58491L9.09451 10.4584C9.48302 10.602 9.68153 11.0334 9.53789 11.4219C9.39425 11.8104 8.96286 12.0089 8.57435 11.8653L6.2118 10.9918C5.82329 10.8482 5.62478 10.4168 5.76842 10.0283ZM10.4935 11.7752C10.6372 11.3867 11.0685 11.1882 11.4571 11.3318L12.6383 11.7686L12.1182 13.1755L10.9369 12.7388C10.5484 12.5951 10.3499 12.1637 10.4935 11.7752Z" fill="white"/>
</g>
</svg>
