<?xml version="1.0" encoding="utf-8"?>
<!-- Generator: Adobe Illustrator 24.0.1, SVG Export Plug-In . SVG Version: 6.00 Build 0)  -->
<svg version="1.1" id="Layer_1" xmlns="http://www.w3.org/2000/svg" xmlns:xlink="http://www.w3.org/1999/xlink" x="0px" y="0px"
	 viewBox="0 0 15 15" style="enable-background:new 0 0 15 15;" xml:space="preserve">
<g>
	<path d="M7.2,0.7h0.6c0.1,0,0.2,0,0.4,0.1c1.8,0.3,3.2,1.8,3.3,3.5c0,0.6,0,1.2,0,1.8c0,0.1,0,0.1,0,0.2c0,0,0,0,0,0
		c0.7,0,1.3,0.5,1.3,1.4c0,1.8,0,3.6,0,5.4c0,0.2,0,0.3-0.1,0.5c-0.2,0.5-0.7,0.9-1.3,0.9c-2.6,0-5.1,0-7.7,0c-0.1,0-0.2,0-0.2,0
		c-0.3,0-0.6-0.1-0.8-0.3c-0.2-0.2-0.4-0.4-0.4-0.7c0-0.1,0-0.1,0-0.2V7.4c0,0,0-0.1,0-0.1c0.1-0.5,0.4-0.8,0.9-1
		c0.1,0,0.3-0.1,0.4-0.1c0-0.1,0-0.1,0-0.2c0-0.7,0-1.4,0.1-2.1c0.2-1.6,1.2-2.6,2.8-3.1C6.6,0.7,6.9,0.7,7.2,0.7z M7.5,7.1
		c-1.3,0-2.6,0-3.9,0c-0.4,0-0.5,0.1-0.5,0.5c0,1.8,0,3.6,0,5.4c0,0.4,0.2,0.5,0.5,0.5h7.8c0.4,0,0.5-0.1,0.5-0.5c0-1.8,0-3.6,0-5.4
		c0-0.4-0.1-0.5-0.5-0.5H7.5z M10.6,6.2C10.6,6.2,10.6,6.2,10.6,6.2c0-0.7,0-1.3,0-1.8c-0.1-1.8-1.9-3.2-3.7-2.8
		C5.4,1.9,4.4,3.1,4.4,4.5c0,0.5,0,1,0,1.6c0,0,0,0.1,0,0.1L10.6,6.2z"/>
	<path d="M7.1,11.4L7.1,11.4c0-0.2,0-0.3,0-0.5c-0.1-0.1-0.2-0.2-0.3-0.2c-0.5-0.3-0.7-1-0.4-1.5c0.2-0.5,0.8-0.9,1.4-0.8
		c0.6,0.1,1,0.5,1.1,1.1C8.9,10,8.6,10.6,8,10.8c-0.1,0-0.1,0.1-0.1,0.1c0,0.3,0,0.5,0,0.8c0,0.3-0.2,0.5-0.4,0.5
		c-0.3,0-0.4-0.2-0.4-0.5C7.1,11.6,7.1,11.5,7.1,11.4z M7.5,10.1c0.3,0,0.4-0.2,0.4-0.4c0-0.3-0.2-0.4-0.4-0.4
		c-0.3,0-0.4,0.2-0.4,0.4C7.1,9.9,7.2,10.1,7.5,10.1z"/>
</g>
</svg>
