<svg width="21" height="16" viewBox="0 0 21 16" fill="none" xmlns="http://www.w3.org/2000/svg">
<g opacity="0.6">
<path fill-rule="evenodd" clip-rule="evenodd" d="M4 1.5H11.054C11.617 1.5 12.1364 1.68604 12.5543 2H9C6.79086 2 5 3.79086 5 6V7.75298C5 7.92007 5.01024 8.08476 5.03013 8.24645H4.55402L4.01815 8.2503C2.63038 8.26038 1.5 7.13817 1.5 5.75037V4C1.5 2.61929 2.61929 1.5 4 1.5ZM5.53133 9.74645H4.55402L4.02905 9.75026C1.80861 9.76639 0 7.97086 0 5.75037V4C0 1.79086 1.79086 0 4 0H11.054C12.5346 0 13.8273 0.804397 14.5189 2H16.054C18.2632 2 20.054 3.79086 20.054 6V8.50247C20.054 10.3097 18.5842 11.7721 16.777 11.763L14.5 11.7464L10 15.7134V11.7464L9.02646 11.7529C8.94001 11.7535 8.85419 11.7513 8.76908 11.7464C7.38386 11.6677 6.18619 10.8834 5.53133 9.74645ZM11.5 12.3914L13.9379 10.2423L16.7846 10.263L16.7862 10.263C17.7612 10.2671 18.554 9.47775 18.554 8.50247V6C18.554 4.61929 17.4348 3.5 16.054 3.5H9C7.61929 3.5 6.5 4.61929 6.5 6V7.75298C6.5 9.14015 7.62939 10.2621 9.01653 10.2529L11.5 10.2365V12.3914Z" fill="white"/>
</g>
</svg>
