<?xml version="1.0" encoding="utf-8"?>
<!-- Generator: Adobe Illustrator 24.0.1, SVG Export Plug-In . SVG Version: 6.00 Build 0)  -->
<svg version="1.1" id="Layer_1" xmlns="http://www.w3.org/2000/svg" xmlns:xlink="http://www.w3.org/1999/xlink" x="0px" y="0px"
	 viewBox="0 0 16 16" style="enable-background:new 0 0 16 16;" xml:space="preserve">
<g>
	<path class="st0" d="M9.8,16c-0.1,0-0.3,0-0.4-0.1l-1.6-0.6c-0.3-0.1-0.5-0.5-0.4-0.8l0.1-0.3c0.3-0.9-0.1-1.9-1-2.2
		c-0.9-0.3-1.9,0.1-2.2,1l-0.1,0.3c-0.1,0.3-0.5,0.5-0.8,0.4l-1.6-0.6c-0.3-0.1-0.6-0.3-0.7-0.6c-0.1-0.3-0.1-0.6,0-0.9L5,0.8
		c0.2-0.6,0.9-1,1.6-0.7l1.6,0.6c0.3,0.1,0.5,0.5,0.4,0.8c-0.3,0.9,0.1,1.9,1,2.2c0.9,0.3,1.9-0.1,2.2-1c0.1-0.4,0.5-0.5,0.8-0.4
		l1.7,0.6c0.3,0.1,0.6,0.3,0.7,0.6c0.1,0.3,0.2,0.6,0,0.9l-4,10.7c-0.1,0.3-0.3,0.6-0.6,0.7C10.2,16,10,16,9.8,16z M8.2,14.6
		l1.5,0.6c0.1,0,0.2,0,0.3,0c0.1,0,0.2-0.1,0.2-0.2l4-10.7c0-0.1,0-0.2,0-0.3c0-0.1-0.1-0.2-0.2-0.2l-1.5-0.6
		c-0.6,1.2-1.9,1.8-3.2,1.3C8,4,7.4,2.6,7.7,1.4L6.3,0.8c-0.1,0-0.2,0-0.3,0C5.9,0.9,5.8,1,5.8,1.1l-4,10.7c0,0.1,0,0.2,0,0.3
		c0,0.1,0.1,0.2,0.2,0.2l1.4,0.5l0.1-0.2c0.5-1.3,1.9-2,3.2-1.5c1.3,0.5,2,1.9,1.5,3.2L8.2,14.6z"/>
	<path class="st0" d="M4,8.2c0.2,0.1,0.4,0,0.5-0.2c0.1-0.2,0-0.4-0.2-0.5L4,8.2z M6.6,8.3c-0.2-0.1-0.4,0-0.5,0.2
		C6,8.7,6.1,9,6.3,9L6.6,8.3z M8.6,9.9C8.8,10,9,9.9,9.1,9.6c0.1-0.2,0-0.4-0.2-0.5L8.6,9.9z M11.2,10c-0.2-0.1-0.4,0-0.5,0.2
		c-0.1,0.2,0,0.4,0.2,0.5L11.2,10z M2.9,7.8L4,8.2l0.3-0.8L3.2,7L2.9,7.8z M6.3,9l2.3,0.8l0.3-0.8L6.6,8.3L6.3,9z M10.9,10.7
		l1.1,0.4l0.3-0.8L11.2,10L10.9,10.7z"/>
</g>
</svg>
