<?xml version="1.0" encoding="utf-8"?>
<!-- Generator: Adobe Illustrator 24.0.1, SVG Export Plug-In . SVG Version: 6.00 Build 0)  -->
<svg version="1.1" id="Layer_1" xmlns="http://www.w3.org/2000/svg" xmlns:xlink="http://www.w3.org/1999/xlink" x="0px" y="0px"
	 viewBox="0 0 16 16" style="enable-background:new 0 0 16 16;" xml:space="preserve">
<style type="text/css">
	.st0{fill-rule:evenodd;clip-rule:evenodd;}
</style>
<path class="st0" d="M7.6,14.4h0.8c0.1,0,0.1,0,0.2,0l0,0c0.1,0,0.2,0,0.3,0c1.3-0.2,2.4-0.7,3.4-1.5c1.1-1,1.8-2.2,2.1-3.7
	c0-0.2,0-0.3,0.1-0.5c0-0.1,0-0.2,0-0.2V7.6c0,0,0,0,0,0c0,0,0-0.1,0-0.1c0-0.6-0.2-1.1-0.4-1.7C12.9,2.7,9.7,1,6.5,1.7
	C3.1,2.5,1,5.9,1.7,9.2c0.2,1.3,0.8,2.4,1.7,3.3c1,1,2.1,1.6,3.5,1.8c0.2,0,0.3,0,0.5,0.1h0C7.5,14.4,7.5,14.4,7.6,14.4z M11.7,11.1
	c-0.1,0-0.2,0-0.2,0c-0.2,0-0.5,0-0.7,0c0,0-0.1,0-0.1-0.1c-0.3-0.5-0.7-0.9-1-1.4c0,0,0-0.1,0-0.1c0.2-0.6,0.4-1.2,0.6-1.8
	c0,0,0.1-0.1,0.1-0.1c0.6-0.2,1.1-0.4,1.7-0.5c0,0,0.1,0,0.1,0c0.5,0.4,1,0.7,1.5,1.1c0,0,0.1,0.1,0.1,0.1c-0.1,1-0.4,1.9-0.9,2.7
	c0,0.1-0.1,0.1-0.2,0.1c-0.2,0-0.4,0-0.7,0l0,0C11.9,11.1,11.8,11.1,11.7,11.1L11.7,11.1z M4,11.1L4,11.1l-0.8-0.1c0,0,0,0,0,0
	c-0.5-0.8-0.8-1.7-0.9-2.7c0,0,0-0.1,0.1-0.1c0.5-0.4,1-0.7,1.5-1.1c0,0,0.1,0,0.2,0c0.6,0.2,1.1,0.4,1.6,0.5c0,0,0.1,0.1,0.1,0.1
	C6,8.3,6.2,8.9,6.4,9.5c0,0,0,0.1,0,0.2c-0.3,0.5-0.7,0.9-1,1.4c0,0-0.1,0.1-0.1,0.1c-0.2,0-0.5,0-0.7,0h0c-0.1,0-0.2,0-0.2,0l0,0
	C4.2,11.1,4.1,11.1,4,11.1z M8.4,4.8c0-0.1,0-0.1,0-0.2c0-0.2,0-0.4,0-0.6c0-0.1,0-0.1,0.1-0.2c0.5-0.4,1-0.7,1.5-1.1
	c0,0,0.1,0,0.2,0c0.9,0.4,1.7,0.9,2.3,1.7c0,0,0,0.1,0,0.2c-0.2,0.6-0.4,1.2-0.6,1.7c0,0-0.1,0.1-0.1,0.1c-0.6,0.2-1.1,0.4-1.7,0.5
	c0,0-0.1,0-0.1,0c-0.5-0.4-1-0.7-1.5-1.1c0,0-0.1-0.1-0.1-0.2c0-0.2,0-0.4,0-0.6v0C8.4,5,8.4,4.9,8.4,4.8L8.4,4.8z M7.6,4.2
	c0,0.1,0,0.2,0,0.2c0,0.1,0,0.1,0,0.2v0l0,0c0,0.1,0,0.2,0,0.2c0,0.1,0,0.2,0,0.2 M7.6,5L7.6,5c0,0.1,0,0.1,0,0.2c0,0.1,0,0.3,0,0.4
	c0,0,0,0,0,0c0,0,0,0,0,0c0,0,0,0.1,0,0.1c0,0,0,0-0.1,0.1C7.3,6,7.1,6.2,6.9,6.3C6.6,6.5,6.3,6.7,6.1,6.9c0,0-0.1,0-0.2,0
	C5.4,6.7,4.8,6.6,4.3,6.4c0,0-0.1-0.1-0.1-0.1C4.1,6.1,4,5.9,4,5.7C3.9,5.5,3.8,5.3,3.8,5.2C3.7,5,3.7,4.8,3.6,4.7c0,0,0-0.1,0-0.1
	c0,0,0,0,0,0c0,0,0,0,0,0c0,0,0-0.1,0-0.1C4.2,3.6,5,3.1,5.9,2.7c0.1,0,0.1,0,0.2,0c0.5,0.4,1,0.7,1.4,1c0.1,0,0.1,0.1,0.1,0.1
	c0,0,0,0,0,0c0,0,0,0,0,0c0,0.1,0,0.2,0,0.2 M8,10c0.1,0,0.2,0,0.2,0h0c0.2,0,0.5,0,0.7,0c0.1,0,0.1,0,0.2,0.1
	c0.3,0.5,0.7,0.9,1,1.4c0,0,0,0.1,0,0.1c-0.2,0.6-0.4,1.2-0.6,1.7c0,0-0.1,0.1-0.1,0.1c-1,0.2-1.9,0.2-2.9,0c0,0-0.1-0.1-0.1-0.1
	c-0.2-0.6-0.4-1.1-0.6-1.7c0,0,0-0.1,0-0.2c0.2-0.3,0.4-0.5,0.6-0.8l0,0l0,0c0.2-0.2,0.3-0.4,0.5-0.6C7,10,7,10,7.1,10
	c0.2,0,0.4,0,0.6,0h0C7.8,10,7.9,10,8,10L8,10z"/>
</svg>
