<?xml version="1.0" encoding="utf-8"?>
<!-- Generator: Adobe Illustrator 24.0.1, SVG Export Plug-In . SVG Version: 6.00 Build 0)  -->
<svg version="1.1" id="Layer_1" xmlns="http://www.w3.org/2000/svg" xmlns:xlink="http://www.w3.org/1999/xlink" x="0px" y="0px"
	 viewBox="0 0 16 13" style="enable-background:new 0 0 16 13;" xml:space="preserve">
<style type="text/css">
	.st0{opacity:0.6;}
</style>
<g class="st0">
	<path d="M8.1,8.5c-2.6,0-4.8-2.1-4.8-4.8V0.2h9.5v3.6C12.9,6.4,10.8,8.5,8.1,8.5z M4.9,1.7v2.1C4.9,5.5,6.3,7,8.1,7
		c1.8,0,3.3-1.5,3.3-3.3V1.7H4.9z"/>
	<path d="M13,6.9h-1.8V1.4H13c1.5,0,2.8,1.2,2.8,2.8S14.5,6.9,13,6.9z M12.8,5.4H13c0.7,0,1.3-0.6,1.3-1.3S13.7,2.9,13,2.9h-0.3V5.4
		z"/>
	<path d="M4.8,6.9H3c-1.5,0-2.8-1.2-2.8-2.8S1.5,1.4,3,1.4h1.8V6.9z M3,2.9c-0.7,0-1.3,0.6-1.3,1.3S2.3,5.4,3,5.4h0.3V2.9H3z"/>
	<rect x="7.4" y="7.3" width="1.5" height="5.4"/>
	<rect x="3.4" y="11.3" width="9.5" height="1.5"/>
</g>
</svg>
