<svg width="10" height="16" viewBox="0 0 10 16" fill="none" xmlns="http://www.w3.org/2000/svg">
<path opacity="0.6" d="M4.58918 14.3636V0.727272H5.46276V14.3636H4.58918ZM7.32178 4.95668C7.26496 4.45241 7.03058 4.06179 6.61865 3.7848C6.20672 3.50426 5.68825 3.36399 5.06325 3.36399C4.61581 3.36399 4.22874 3.43501 3.90203 3.57706C3.57533 3.71555 3.32142 3.90732 3.14031 4.15234C2.96276 4.39382 2.87398 4.66903 2.87398 4.97798C2.87398 5.23722 2.93435 5.46094 3.05509 5.64915C3.17938 5.83736 3.34095 5.99538 3.53982 6.12322C3.74223 6.24751 3.95885 6.35227 4.18968 6.4375C4.4205 6.51918 4.64244 6.58665 4.85551 6.63991L5.92085 6.9169C6.26887 7.00213 6.62575 7.11754 6.99152 7.26314C7.35729 7.40874 7.69642 7.6005 8.00892 7.83842C8.32142 8.07635 8.57355 8.37109 8.76531 8.72266C8.96063 9.07422 9.05828 9.49503 9.05828 9.98509C9.05828 10.603 8.89848 11.1516 8.57888 11.631C8.26283 12.1104 7.80296 12.4886 7.19926 12.7656C6.59912 13.0426 5.87291 13.1811 5.02064 13.1811C4.20388 13.1811 3.4972 13.0515 2.90061 12.7923C2.30402 12.533 1.83705 12.1655 1.49969 11.6896C1.16233 11.2102 0.975897 10.642 0.940385 9.98509H2.59166C2.62362 10.3793 2.75146 10.7077 2.97519 10.9705C3.20246 11.2298 3.49188 11.4233 3.84344 11.5511C4.19855 11.6754 4.5874 11.7376 5.00999 11.7376C5.47519 11.7376 5.88889 11.6648 6.25111 11.5192C6.61688 11.37 6.90452 11.1641 7.11404 10.9013C7.32355 10.6349 7.42831 10.3242 7.42831 9.9691C7.42831 9.64595 7.33598 9.38139 7.15132 9.17543C6.97022 8.96946 6.72341 8.79901 6.41091 8.66406C6.10196 8.52912 5.75218 8.41016 5.36155 8.30717L4.07249 7.95561C3.19891 7.71768 2.50644 7.3679 1.99507 6.90625C1.48726 6.4446 1.23335 5.83381 1.23335 5.07386C1.23335 4.44531 1.40381 3.89666 1.74472 3.42791C2.08563 2.95916 2.54727 2.59517 3.12966 2.33594C3.71205 2.07315 4.36901 1.94176 5.10054 1.94176C5.83918 1.94176 6.49081 2.07138 7.05544 2.33061C7.62362 2.58984 8.07107 2.94673 8.39777 3.40128C8.72448 3.85227 8.89493 4.37074 8.90914 4.95668H7.32178Z" fill="white"/>
</svg>
