<?xml version="1.0" encoding="utf-8"?>
<!-- Generator: Adobe Illustrator 24.0.1, SVG Export Plug-In . SVG Version: 6.00 Build 0)  -->
<svg version="1.1" id="Layer_1" xmlns="http://www.w3.org/2000/svg" xmlns:xlink="http://www.w3.org/1999/xlink" x="0px" y="0px"
	 viewBox="0 0 16 16" style="enable-background:new 0 0 16 16;" xml:space="preserve">
<g>
	<path d="M9.7,8.5l-5-5c-0.2-0.2-0.6-0.2-0.8,0L2.2,5.1C1.9,5.4,1.9,5.7,2.2,6l5,5c0.2,0.2,0.6,0.2,0.8,0l1.7-1.7
		C9.9,9.1,9.9,8.7,9.7,8.5z"/>
	<path d="M9.3,11.5l2.1,2.1c0.2,0.2,0.6,0.2,0.8,0c0.2-0.2,0.2-0.6,0-0.8l-2.1-2.1L9.3,11.5z"/>
	<path d="M11.9,6.4c1.2,0,2.1-0.9,2.1-2.1s-0.9-2.1-2.1-2.1S9.8,3.2,9.8,4.3S10.8,6.4,11.9,6.4z"/>
</g>
</svg>
