<?xml version="1.0" encoding="utf-8"?>
<!-- Generator: Adobe Illustrator 24.0.1, SVG Export Plug-In . SVG Version: 6.00 Build 0)  -->
<svg version="1.1" id="Layer_1" xmlns="http://www.w3.org/2000/svg" xmlns:xlink="http://www.w3.org/1999/xlink" x="0px" y="0px"
	 viewBox="0 0 16 16" style="enable-background:new 0 0 16 16;" xml:space="preserve">
<style type="text/css">
	.st0{fill:#FFFFFF;}
	.st1{fill-rule:evenodd;clip-rule:evenodd;fill:#3E3EE0;}
</style>
<circle class="st0" cx="8" cy="8" r="8"/>
<path class="st1" d="M7.7,14h0.7c0.1,0,0.1,0,0.2,0l0,0c0.1,0,0.2,0,0.3,0c1.2-0.2,2.2-0.6,3.1-1.4c1.1-0.9,1.7-2.1,2-3.5
	c0-0.2,0-0.3,0.1-0.5c0-0.1,0-0.1,0-0.2V7.6c0,0,0,0,0,0c0,0,0-0.1,0-0.1c0-0.5-0.1-1.1-0.3-1.6c-1-2.9-4.1-4.5-7.1-3.8
	C3.5,2.9,1.5,6,2.1,9.1c0.2,1.2,0.8,2.2,1.6,3.1c0.9,0.9,2,1.5,3.2,1.7c0.2,0,0.3,0,0.5,0.1h0C7.5,14,7.6,14,7.7,14z M11.5,10.9
	c-0.1,0-0.1,0-0.2,0c-0.2,0-0.4,0-0.6,0c0,0-0.1,0-0.1-0.1c-0.3-0.4-0.6-0.9-1-1.3c0,0,0-0.1,0-0.1c0.2-0.5,0.4-1.1,0.5-1.6
	c0,0,0.1-0.1,0.1-0.1c0.5-0.2,1-0.3,1.6-0.5c0,0,0.1,0,0.1,0c0.5,0.3,0.9,0.7,1.4,1c0,0,0.1,0.1,0.1,0.1c-0.1,0.9-0.3,1.8-0.8,2.5
	c0,0.1-0.1,0.1-0.1,0.1c-0.2,0-0.4,0-0.6,0l0,0C11.6,10.9,11.6,10.9,11.5,10.9L11.5,10.9z M4.3,10.9L4.3,10.9l-0.7-0.1c0,0,0,0,0,0
	C3,10.1,2.8,9.2,2.7,8.3c0,0,0-0.1,0.1-0.1c0.4-0.3,0.9-0.7,1.4-1c0,0,0.1,0,0.2,0c0.5,0.2,1,0.3,1.5,0.5c0,0,0.1,0.1,0.1,0.1
	c0.2,0.5,0.4,1.1,0.5,1.6c0,0,0,0.1,0,0.1c-0.3,0.4-0.6,0.9-1,1.3c0,0-0.1,0.1-0.1,0.1c-0.2,0-0.4,0-0.6,0h0c-0.1,0-0.1,0-0.2,0l0,0
	C4.4,10.9,4.4,10.9,4.3,10.9z M8.4,5c0-0.1,0-0.1,0-0.2c0-0.2,0-0.4,0-0.6c0,0,0-0.1,0.1-0.1c0.5-0.3,0.9-0.7,1.4-1c0,0,0.1,0,0.1,0
	c0.9,0.3,1.6,0.9,2.2,1.6c0,0,0,0.1,0,0.1c-0.2,0.5-0.3,1.1-0.5,1.6c0,0-0.1,0.1-0.1,0.1C11,6.7,10.5,6.8,9.9,7c0,0-0.1,0-0.1,0
	C9.3,6.6,8.9,6.3,8.4,6c0,0-0.1-0.1-0.1-0.1c0-0.2,0-0.4,0-0.6v0C8.4,5.2,8.4,5.1,8.4,5L8.4,5z M7.6,4.4c0,0.1,0,0.1,0,0.2
	c0,0,0,0.1,0,0.1v0l0,0c0,0.1,0,0.1,0,0.2c0,0.1,0,0.1,0,0.2 M7.6,5.2L7.6,5.2c0,0.1,0,0.1,0,0.2c0,0.1,0,0.3,0,0.4c0,0,0,0,0,0
	c0,0,0,0,0,0c0,0,0,0.1,0,0.1c0,0,0,0-0.1,0.1C7.4,6.1,7.2,6.3,6.9,6.4C6.7,6.6,6.5,6.8,6.2,7c0,0-0.1,0-0.2,0
	C5.5,6.8,5,6.7,4.5,6.5c0,0-0.1-0.1-0.1-0.1C4.4,6.2,4.3,6.1,4.2,5.9C4.2,5.7,4.1,5.5,4.1,5.4C4,5.2,4,5.1,3.9,4.9c0,0,0-0.1,0-0.1
	c0,0,0,0,0,0c0,0,0,0,0,0c0,0,0-0.1,0-0.1c0.6-0.7,1.3-1.2,2.1-1.6c0.1,0,0.1,0,0.2,0c0.4,0.3,0.9,0.7,1.3,1c0.1,0,0.1,0.1,0.1,0.1
	c0,0,0,0,0,0c0,0,0,0,0,0c0,0.1,0,0.1,0,0.2 M8,9.9c0.1,0,0.1,0,0.2,0h0c0.2,0,0.4,0,0.6,0c0,0,0.1,0,0.1,0.1c0.3,0.4,0.6,0.9,1,1.3
	c0,0,0,0.1,0,0.1C9.8,12,9.6,12.5,9.4,13c0,0-0.1,0.1-0.1,0.1c-0.9,0.2-1.8,0.2-2.7,0c0,0-0.1-0.1-0.1-0.1C6.4,12.5,6.2,12,6,11.4
	c0,0,0-0.1,0-0.2c0.2-0.2,0.3-0.5,0.5-0.7l0,0l0,0C6.7,10.4,6.9,10.2,7,10c0-0.1,0.1-0.1,0.2-0.1c0.2,0,0.4,0,0.6,0h0
	C7.8,9.9,7.9,9.9,8,9.9L8,9.9z"/>
</svg>
