<?xml version="1.0" encoding="utf-8"?>
<!-- Generator: Adobe Illustrator 24.0.1, SVG Export Plug-In . SVG Version: 6.00 Build 0)  -->
<svg version="1.1" id="Layer_1" xmlns="http://www.w3.org/2000/svg" xmlns:xlink="http://www.w3.org/1999/xlink" x="0px" y="0px"
	 viewBox="0 0 19 17" style="enable-background:new 0 0 19 17;" xml:space="preserve">
<path class="st0" d="M7.9,3.3H4.7L5.2,1c0.1-0.3,0-0.6-0.2-0.8c-0.3-0.3-0.9-0.3-1.2,0l-3,2.9c-0.3,0.3-0.5,0.6-0.5,1v4.3
	C0.3,9.3,1,10,1.8,10h4.4c0.6,0,1.1-0.4,1.4-0.9l1.6-3.7C9.7,4.4,9,3.3,7.9,3.3z M16.8,7h-4.4c-0.6,0-1.1,0.4-1.4,0.9l-1.6,3.7
	c-0.4,1,0.3,2.1,1.4,2.1H14L13.5,16c-0.1,0.3,0,0.6,0.2,0.8c0.3,0.3,0.9,0.3,1.2,0l3-2.9c0.3-0.3,0.4-0.6,0.4-1V8.5
	C18.3,7.7,17.7,7,16.8,7z"/>
</svg>
