<?xml version="1.0" encoding="utf-8"?>
<!-- Generator: Adobe Illustrator 24.0.1, SVG Export Plug-In . SVG Version: 6.00 Build 0)  -->
<svg version="1.1" id="Layer_1" xmlns="http://www.w3.org/2000/svg" xmlns:xlink="http://www.w3.org/1999/xlink" x="0px" y="0px"
	 viewBox="0 0 16 16" style="enable-background:new 0 0 16 16;" xml:space="preserve">
<path d="M10.6,11.7H9c-0.4,0-0.7-0.3-0.7-0.7v-0.8c0.7,0.3,1.5,0.5,2.3,0.5l1.6-0.1c0.6,0,1-0.5,0.9-1.1c-0.2-1.1-0.5-2.1-1.1-3
	l-0.2-0.3c0.1,0,0.1-0.1,0.2-0.2l0.4-0.7c0.5-0.8-0.1-1.7-0.9-1.7V3.5c0-0.8-0.6-1.4-1.4-1.5L9.5,2C8,2,6.7,2.9,6.1,4.2L5.8,4
	C5.4,3.5,4.6,3.5,4.2,4.1C4,4.4,3.9,4.8,4,5.1l0.4,1.1C4.5,6.6,4.8,6.9,5.2,7C5.4,7.1,5.6,7,5.8,7v3.5c0,0.6-0.5,1.1-1.1,1.1
	c-0.9,0-1.6,0.6-1.7,1.5L2.9,14h10.1C12.9,12.7,11.9,11.7,10.6,11.7z"/>
</svg>
