<?xml version="1.0" encoding="utf-8"?>
<!-- Generator: Adobe Illustrator 24.0.1, SVG Export Plug-In . SVG Version: 6.00 Build 0)  -->
<svg version="1.1" id="Layer_1" xmlns="http://www.w3.org/2000/svg" xmlns:xlink="http://www.w3.org/1999/xlink" x="0px" y="0px"
	 viewBox="0 0 21 22" style="enable-background:new 0 0 21 22;" xml:space="preserve">
<path d="M13.7,17H7.3C5.5,17,4,15.5,4,13.7v-1.2h2v1.2C6,14.4,6.6,15,7.3,15h6.3c0.7,0,1.3-0.6,1.3-1.3v-1.2h2v1.2
	C17,15.5,15.5,17,13.7,17z M17,10.3h-2V8c0-1.1-0.9-2-2-2H8C6.9,6,6,6.9,6,8v2.3H4V8c0-2.2,1.8-4,4-4h5c2.2,0,4,1.8,4,4V10.3z"/>
<path class="st0" d="M20,6c-0.6,0-1-0.4-1-1V3c0-0.6-0.4-1-1-1h-2c-0.6,0-1-0.4-1-1s0.4-1,1-1h2c1.7,0,3,1.3,3,3v2
	C21,5.6,20.6,6,20,6z"/>
<path d="M5,21H3c-1.7,0-3-1.3-3-3v-2c0-0.6,0.4-1,1-1s1,0.4,1,1v2c0,0.6,0.4,1,1,1h2c0.6,0,1,0.4,1,1S5.6,21,5,21z"/>
<path d="M18,21h-2c-0.6,0-1-0.4-1-1s0.4-1,1-1h2c0.6,0,1-0.4,1-1v-2c0-0.6,0.4-1,1-1s1,0.4,1,1v2C21,19.7,19.7,21,18,21
	z"/>
<path d="M1,6C0.4,6,0,5.6,0,5V3c0-1.7,1.3-3,3-3h2c0.6,0,1,0.4,1,1S5.6,2,5,2H3C2.4,2,2,2.4,2,3v2C2,5.6,1.6,6,1,6z"/>
<path d="M18.5,13.5h-16c-0.6,0-1-0.4-1-1c0-0.6,0.4-1,1-1h16c0.6,0,1,0.4,1,1C19.5,13.1,19.1,13.5,18.5,13.5z"/>
</svg>
