<?xml version="1.0" encoding="utf-8"?>
<!-- Generator: Adobe Illustrator 24.0.1, SVG Export Plug-In . SVG Version: 6.00 Build 0)  -->
<svg version="1.1" id="Layer_1" xmlns="http://www.w3.org/2000/svg" xmlns:xlink="http://www.w3.org/1999/xlink" x="0px" y="0px"
	 viewBox="0 0 17 16" style="enable-background:new 0 0 17 16;" xml:space="preserve">
<path d="M16.1,13.2v0.9c0,0.9-0.8,1.7-1.8,1.7H1.8c-1,0-1.8-0.8-1.8-1.7V1.9c0-0.9,0.8-1.7,1.8-1.7h12.6c1,0,1.8,0.8,1.8,1.7v0.9
	H8.1c-1,0-1.8,0.8-1.8,1.7v6.9c0,0.9,0.8,1.7,1.8,1.7h8V13.2z M8.1,11.5H17V4.5H8.1V11.5z M11.6,9.3c-0.8,0-1.3-0.5-1.3-1.3
	s0.7-1.3,1.3-1.3s1.3,0.5,1.3,1.3S12.4,9.3,11.6,9.3z"/>
</svg>
