<svg width="18" height="14" viewBox="0 0 18 14" fill="none" xmlns="http://www.w3.org/2000/svg">
<path d="M16.6383 10.051C16.6166 10.2551 16.6094 10.4522 16.5732 10.6563C16.566 10.7196 16.5226 10.8041 16.472 10.8393C15.4231 11.5853 14.2803 12.1624 13.0434 12.5636C12.6962 12.6762 12.689 12.6833 12.4864 12.3806C12.2694 12.0569 12.0741 11.7261 11.8571 11.3742C12.3201 11.1912 12.7468 11.0152 13.1447 10.7689C12.9277 10.5155 12.8843 10.5085 12.6239 10.6211C10.2007 11.6205 7.77757 11.6064 5.35443 10.6211C5.1085 10.5226 5.0217 10.5437 4.83363 10.797L6.13562 11.4094C5.86076 11.8246 5.60036 12.2258 5.33273 12.627C5.31103 12.6551 5.22423 12.6621 5.18083 12.6481C3.85714 12.2469 2.63472 11.6416 1.51356 10.8463C1.47016 10.8182 1.42676 10.7618 1.42676 10.7126C1.31103 9.5161 1.35443 8.32666 1.58589 7.14425C1.92586 5.41991 2.63472 3.85041 3.63291 2.39352C3.66907 2.33721 3.73417 2.28795 3.79927 2.2598C4.7396 1.84455 5.72332 1.55598 6.73598 1.37299C6.81555 1.35892 6.86618 1.37299 6.90235 1.45041C6.99638 1.64044 7.10488 1.82343 7.19168 2.0205C7.24231 2.14015 7.30741 2.15422 7.43038 2.14015C7.84991 2.09792 8.26944 2.03458 8.68897 2.04161C9.32549 2.04865 9.96925 2.10496 10.6058 2.14719C10.707 2.14719 10.7649 2.14719 10.8083 2.04161C10.8951 1.84455 11.0036 1.65452 11.0976 1.45745C11.1338 1.38003 11.1772 1.36595 11.264 1.38003C12.2767 1.56302 13.2532 1.85158 14.1863 2.2598C14.2586 2.29499 14.3309 2.34425 14.3743 2.41463C14.6419 2.83692 14.9168 3.25921 15.1627 3.69557C15.915 5.06097 16.3852 6.51082 16.5588 8.05217C16.5877 8.32666 16.6166 8.60818 16.6456 8.88267L16.6383 10.051ZM13 6.83871C12.9566 6.64868 12.9421 6.45865 12.877 6.27566C12.5443 5.34663 11.4376 5.04399 10.7288 5.6915C10.0778 6.2827 10.0705 7.38065 10.7143 7.97889C11.2423 8.46452 12.009 8.45748 12.5226 7.95777C12.8336 7.64809 12.9711 7.26804 13 6.83871ZM7.90054 6.81056C7.90054 6.75425 7.83544 7.39763 7.82097 7.31317C7.80651 7.21463 7.84268 6.38827 7.80651 6.28974C7.48101 5.37478 6.39602 5.05806 5.67993 5.67038C4.99277 6.26158 4.9783 7.39472 5.65099 8C6.17902 8.47859 6.93852 8.45748 7.44485 7.95777C7.75588 7.64809 7.89331 7.26804 7.90054 6.81056Z" stroke="#BEBEBE" stroke-width="1.5" stroke-miterlimit="10"/>
</svg>
