<?xml version="1.0" encoding="utf-8"?>
<!-- Generator: Adobe Illustrator 24.0.1, SVG Export Plug-In . SVG Version: 6.00 Build 0)  -->
<svg version="1.1" id="Layer_1" xmlns="http://www.w3.org/2000/svg" xmlns:xlink="http://www.w3.org/1999/xlink" x="0px" y="0px"
	 viewBox="0 0 20 20" style="enable-background:new 0 0 20 20;" xml:space="preserve">
<path d="M14,18H4V5c0-0.6-0.5-1-1-1S2,4.4,2,5v13c0,1.1,0.9,2,2,2h10c0.6,0,1-0.5,1-1S14.6,18,14,18z M19,14V2
	c0-1.1-0.9-2-2-2H8C6.9,0,6,0.9,6,2v12c0,1.1,0.9,2,2,2h9C18.1,16,19,15.1,19,14z M17,14H8V2h9V14z"/>
</svg>
