<?xml version="1.0" encoding="utf-8"?>
<!-- Generator: Adobe Illustrator 24.0.1, SVG Export Plug-In . SVG Version: 6.00 Build 0)  -->
<svg version="1.1" id="Layer_1" xmlns="http://www.w3.org/2000/svg" xmlns:xlink="http://www.w3.org/1999/xlink" x="0px" y="0px"
	 viewBox="0 0 400 400" style="enable-background:new 0 0 400 400;" xml:space="preserve">
<style type="text/css">
	.st0{fill:#08162A;}
	.st1{fill:#FFFFFF;}
	.st2{fill:#17D0BC;}
	.st3{fill:#FF6262;}
</style>
<title>Asset 12</title>
<g id="Layer_2_1_">
	<g id="Layer_1-2">
		<path class="st0" d="M200,0L200,0c110.5,0,200,89.5,200,200l0,0c0,110.5-89.5,200-200,200l0,0C89.5,400,0,310.5,0,200l0,0
			C0,89.5,89.5,0,200,0z"/>
		<path class="st1" d="M195.5,187.7c0.1,5.7-0.7,11.3-2.3,16.8c-1.4,4.6-3.5,9-6.2,13c-2.5,3.7-5.5,6.9-9,9.7
			c-6.4,5.1-13.8,8.6-21.8,10.2c-3.5,0.7-7,1.1-10.6,1.2H84.7v-27.4h60.9c3.2-0.2,6.4-1,9.4-2.2c2.7-1.1,5.1-2.7,7.2-4.7
			c2-2,3.6-4.5,4.7-7.1c1.1-3,1.7-6.2,1.7-9.4v-12.5c-0.3-3.2-1-6.4-2.2-9.5c-1-2.7-2.5-5.2-4.5-7.4c-1.9-2.1-4.3-3.7-6.9-4.8
			c-3-1.2-6.1-1.8-9.3-1.7H84.9c-3.6,0-6.3,1-8.2,2.9c-1.9,1.9-2.8,4.6-2.8,8.2v112.8H47V162.9c0-7,1.3-13,3.8-17.9
			c2.3-4.6,5.5-8.7,9.4-11.9c3.6-3,7.8-5.2,12.3-6.6c4-1.3,8.1-2,12.2-2.1h60.9c5.5-0.1,11.1,0.7,16.4,2.4c4.6,1.4,8.9,3.6,12.8,6.3
			c3.6,2.5,6.8,5.6,9.4,9.1c2.5,3.4,4.7,7,6.4,10.8c1.7,3.6,2.9,7.5,3.7,11.4c0.7,3.6,1.1,7.2,1.1,10.8L195.5,187.7z"/>
		<path class="st2" d="M215.5,245.4l57.1-40c1.7-1.2,3.6-2,5.6-2.6c2.2-0.6,4.6-1,6.9-0.9c2.4,0,4.8,0.3,7.1,1
			c2,0.6,3.9,1.5,5.7,2.7l55.2,39.5v30.5L285,227l-69.6,48.6V245.4z"/>
		<path class="st3" d="M215.5,124.3l69.6,48.6l68-48.6v30.6l-55.2,39.4c-3.2,2.4-7.5,3.7-12.8,3.7c-2.3,0-4.7-0.3-6.9-0.9
			c-2-0.5-3.9-1.4-5.6-2.6l-57.1-39.9L215.5,124.3z"/>
	</g>
</g>
</svg>
